<?xml version="1.0" standalone="no"?>
<!DOCTYPE svg PUBLIC "-//W3C//DTD SVG 20010904//EN"
 "http://www.w3.org/TR/2001/REC-SVG-20010904/DTD/svg10.dtd">
<svg version="1.0" xmlns="http://www.w3.org/2000/svg"
 width="512.000000pt" height="512.000000pt" viewBox="0 0 512.000000 512.000000"
 preserveAspectRatio="xMidYMid meet">
<metadata>
Created by potrace 1.14, written by Peter Selinger 2001-2017
</metadata>
<g transform="translate(0.000000,512.000000) scale(0.100000,-0.100000)"
fill="#000000" stroke="none">
<path d="M2379 5116 c-2 -2 -40 -6 -83 -10 -44 -4 -82 -9 -85 -11 -4 -2 -34
-7 -66 -10 -33 -4 -121 -22 -195 -40 -875 -215 -1570 -871 -1835 -1730 -41
-134 -42 -139 -49 -178 -3 -15 -7 -35 -10 -45 -3 -9 -8 -35 -11 -57 -4 -22 -9
-49 -10 -60 -27 -155 -32 -243 -30 -445 3 -267 29 -442 100 -690 238 -829 899
-1490 1733 -1734 110 -33 223 -59 309 -72 21 -3 49 -7 63 -10 142 -26 552 -26
705 1 17 3 59 10 95 16 621 106 1221 476 1596 984 41 55 77 105 82 110 21 27
125 210 166 293 110 220 200 502 232 722 2 19 6 44 9 55 19 95 27 458 13 605
-15 144 -45 302 -87 455 -57 207 -192 511 -247 554 -87 68 -205 35 -247 -69
-21 -51 -14 -90 32 -180 113 -222 187 -465 228 -755 14 -100 8 -455 -10 -570
-54 -347 -179 -670 -368 -946 -253 -369 -616 -657 -1031 -819 -135 -53 -282
-95 -398 -115 -19 -3 -42 -8 -50 -10 -8 -2 -40 -7 -70 -10 -30 -3 -74 -8 -98
-11 -60 -8 -325 -8 -397 0 -403 44 -727 159 -1045 371 -143 95 -197 139 -329
268 -303 297 -515 680 -611 1102 -21 92 -37 193 -46 290 -12 135 -6 396 11
483 2 10 6 43 10 72 9 74 59 270 93 370 80 229 188 431 335 625 157 206 366
398 587 539 240 152 602 286 870 322 214 28 517 25 682 -6 29 -6 67 -13 83
-16 17 -3 48 -10 70 -16 22 -5 50 -12 62 -14 97 -18 403 -141 503 -203 28 -17
52 -31 55 -31 3 0 53 -31 111 -70 122 -80 155 -90 220 -65 102 39 136 163 66
246 -23 28 -135 106 -252 176 -44 27 -276 143 -285 143 -4 0 -21 6 -38 14
-114 52 -374 125 -537 150 -52 8 -111 18 -130 21 -38 7 -465 16 -471 11z"/>
<path d="M4304 4304 c-41 -13 -103 -76 -105 -103 0 -9 -2 -27 -4 -41 -8 -70
81 -182 158 -198 69 -14 142 19 172 78 33 66 22 134 -34 200 -56 68 -116 88
-187 64z"/>
<path d="M1837 3765 c-47 -16 -71 -37 -91 -80 -31 -66 -23 -96 90 -325 58
-118 114 -233 124 -255 10 -22 84 -173 163 -335 l145 -295 -206 -5 c-185 -4
-211 -7 -242 -25 -110 -65 -96 -230 23 -283 20 -8 100 -12 276 -12 l249 0 -1
-95 0 -95 -249 0 c-228 0 -252 -2 -287 -20 -111 -56 -114 -216 -6 -277 39 -22
49 -23 291 -23 l251 0 -1 -62 c-3 -118 25 -183 92 -215 69 -33 149 -11 198 52
23 31 27 46 30 126 1 50 5 93 6 95 2 2 116 4 253 4 271 1 281 3 328 60 47 56
48 144 1 199 -48 57 -62 60 -331 61 -136 0 -249 3 -251 5 -4 3 -6 136 -3 173
1 9 57 12 246 12 270 0 291 4 338 59 48 57 48 144 0 201 -45 54 -75 60 -289
60 -107 0 -194 2 -194 5 0 8 69 152 230 480 288 587 302 618 302 657 -1 94
-80 165 -172 156 -99 -10 -74 33 -535 -913 l-88 -180 -125 255 c-69 140 -182
372 -252 515 -70 143 -136 269 -146 281 -41 45 -105 60 -167 39z"/>
</g>
</svg>
